<?xml version="1.0" standalone="no"?>
<!DOCTYPE svg PUBLIC "-//W3C//DTD SVG 20010904//EN"
 "http://www.w3.org/TR/2001/REC-SVG-20010904/DTD/svg10.dtd">
<svg version="1.0" xmlns="http://www.w3.org/2000/svg"
 width="512.000000pt" height="512.000000pt" viewBox="0 0 512.000000 512.000000"
 preserveAspectRatio="xMidYMid meet">
<metadata>
Created by potrace 1.14, written by Peter Selinger 2001-2017
</metadata>
<g transform="translate(0.000000,512.000000) scale(0.100000,-0.100000)"
fill="#000000" stroke="none">
<path d="M184 4933 l-24 -26 2 -1473 c3 -1398 4 -1474 21 -1491 16 -16 41 -18
216 -21 l197 -3 3 -47 c1 -26 3 -60 4 -77 l2 -30 -115 -5 c-66 -3 -125 -10
-137 -18 -44 -25 -39 -105 8 -129 15 -8 68 -13 142 -13 l117 0 1 -27 c1 -16 2
-41 4 -58 6 -74 17 -226 21 -285 2 -36 6 -87 9 -115 2 -27 7 -93 11 -145 3
-52 7 -111 9 -130 2 -19 7 -82 10 -140 3 -58 8 -118 10 -135 2 -16 7 -78 11
-137 l6 -108 -251 0 -252 0 -25 -27 c-21 -22 -25 -35 -20 -62 3 -19 12 -42 21
-50 14 -14 246 -16 2361 -19 2085 -2 2348 0 2374 13 34 18 46 52 33 92 -17 50
-35 53 -336 53 l-277 0 27 42 c22 35 27 56 29 111 2 66 2 68 60 137 160 192
266 410 320 657 22 103 31 517 11 580 -7 23 -16 45 -20 49 -18 18 -2 24 66 24
55 0 78 5 97 20 l25 19 3 1474 c2 1442 2 1475 -17 1498 l-19 24 -2357 3 -2356
2 -25 -27z m4616 -1493 l0 -1360 -172 0 -173 1 -25 33 c-81 110 -265 157 -381
97 -46 -23 -47 -23 -88 -5 -32 14 -41 23 -41 42 0 74 -66 175 -136 208 -21 10
-40 29 -48 48 -18 40 -67 89 -114 112 -55 28 -166 26 -213 -3 -51 -32 -89 -72
-105 -110 -9 -21 -26 -38 -47 -47 -68 -28 -137 -134 -137 -209 0 -19 -9 -30
-40 -46 l-40 -20 -48 24 c-124 62 -313 14 -386 -98 l-18 -27 -225 0 -225 0 5
76 c3 41 6 77 8 78 2 2 17 7 32 12 16 5 36 22 45 37 16 26 15 34 -30 215 -36
142 -53 191 -69 205 -19 15 -52 17 -360 17 -332 0 -339 0 -340 20 -1 11 -2 23
-3 28 -1 4 -6 39 -10 77 -5 39 -9 77 -11 85 -1 8 -6 42 -10 75 -4 33 -9 69
-10 80 -2 11 -6 45 -9 75 -13 105 -17 132 -26 155 -7 17 -57 48 -189 114 -99
50 -191 91 -205 91 -50 0 -86 -61 -67 -113 8 -21 41 -42 163 -103 84 -42 154
-77 154 -78 1 0 4 -28 8 -61 3 -33 8 -71 10 -85 2 -14 7 -51 11 -84 4 -32 8
-68 10 -80 2 -11 6 -48 10 -81 3 -33 8 -72 11 -87 l6 -28 -332 0 -331 0 -22
-24 c-16 -17 -35 -74 -66 -203 -40 -164 -43 -181 -30 -208 8 -16 27 -33 44
-38 17 -5 32 -11 33 -13 2 -1 6 -37 9 -78 l6 -76 -132 0 -131 0 0 1360 0 1360
2240 0 2240 0 0 -1360z m-2762 -960 l20 -80 -698 0 -698 0 20 80 20 80 658 0
658 0 20 -80z m1538 -21 c7 -5 18 -32 24 -60 12 -50 39 -79 73 -79 38 0 76
-29 82 -64 10 -49 -16 -84 -68 -93 -26 -4 -53 -18 -76 -40 -20 -19 -46 -36
-59 -40 -39 -9 -87 6 -123 41 -23 21 -50 35 -76 39 -47 8 -62 23 -70 70 -7 44
18 71 79 87 48 13 77 43 78 80 0 27 26 64 50 73 20 8 70 0 86 -14z m-1591
-261 c-4 -51 -14 -180 -20 -275 -3 -37 -7 -93 -10 -123 -3 -30 -7 -86 -10
-125 -6 -86 -16 -225 -21 -285 -2 -25 -6 -83 -9 -130 -3 -47 -8 -110 -10 -140
-3 -30 -7 -89 -10 -130 -3 -41 -7 -104 -10 -140 -3 -36 -7 -101 -10 -145 -3
-44 -8 -98 -10 -120 -2 -22 -7 -87 -11 -145 -3 -58 -8 -108 -11 -112 -2 -5
-221 -8 -487 -8 -379 0 -483 3 -483 13 0 23 -14 212 -18 252 -2 22 -7 81 -10
130 -3 50 -8 108 -10 130 -3 22 -7 83 -10 135 -3 52 -8 115 -10 140 -2 25 -6
81 -9 125 -4 44 -9 109 -11 145 -3 36 -7 94 -10 130 -2 36 -6 94 -9 130 -9
109 -18 233 -21 280 -4 63 -15 216 -20 268 l-3 42 628 0 628 0 -3 -42z m925
-132 c14 -5 41 -21 60 -36 19 -15 43 -30 53 -33 19 -7 57 5 78 25 21 20 67 48
79 48 6 0 26 -11 43 -24 18 -13 47 -28 64 -34 18 -6 48 -22 66 -36 46 -35 83
-48 153 -51 70 -4 132 14 182 51 17 14 47 30 65 36 31 11 87 45 97 60 7 9 52
-14 92 -47 42 -35 76 -32 133 13 42 32 55 37 100 37 69 -1 112 -28 143 -88 27
-55 49 -67 130 -68 78 0 120 -17 156 -62 30 -37 31 -43 34 -148 l4 -109 -1122
0 -1122 0 3 108 c4 102 6 111 33 146 37 49 79 66 166 66 78 0 95 10 125 74 20
41 50 63 102 74 42 10 47 9 83 -2z m-630 -149 c0 -2 -7 -18 -15 -35 -13 -25
-20 -59 -24 -114 -1 -5 -30 -8 -65 -8 l-64 0 4 33 c1 17 4 53 5 80 l3 47 78 0
c43 0 78 -2 78 -3z m-39 -394 c2 -169 21 -284 75 -442 103 -306 309 -566 591
-748 14 -9 -82 -12 -441 -12 l-458 -1 7 123 c3 67 8 129 10 137 2 8 6 60 10
115 3 55 8 127 11 160 3 33 7 83 9 110 13 194 17 253 20 275 2 14 7 77 11 140
3 63 8 126 9 140 2 14 4 37 4 53 1 27 2 27 71 27 l70 0 1 -77z m2393 -115 c-2
-18 -6 -49 -10 -68 -3 -19 -8 -48 -11 -65 -8 -51 -70 -230 -104 -297 -36 -73
-124 -206 -172 -261 l-33 -38 -35 15 c-23 10 -42 27 -52 48 -40 85 -119 133
-217 133 -98 0 -182 -51 -216 -132 -9 -20 -27 -38 -47 -47 -41 -18 -90 -66
-113 -114 -27 -54 -26 -154 3 -208 l22 -42 -27 -6 c-15 -3 -77 -4 -138 -2
-406 13 -776 276 -969 690 -45 95 -89 242 -100 334 -4 26 -8 57 -10 70 l-4 22
1118 0 1118 0 -3 -32z m-595 -703 c22 -11 32 -26 41 -64 14 -59 20 -65 80 -81
25 -7 50 -16 57 -22 16 -13 26 -63 18 -88 -7 -23 -53 -50 -85 -50 -11 0 -36
-15 -55 -34 -58 -59 -126 -59 -187 -2 -22 21 -49 35 -75 39 -47 8 -62 23 -70
70 -7 44 18 71 79 87 48 13 77 43 78 80 0 27 26 64 50 73 25 9 40 8 69 -8z"/>
<path d="M2410 4385 c-315 -68 -551 -292 -626 -595 -20 -79 -25 -246 -11 -331
9 -58 47 -171 78 -229 107 -208 342 -380 566 -417 86 -14 263 -8 337 11 453
119 704 577 564 1031 -31 101 -120 242 -201 319 -155 145 -327 216 -537 221
-63 1 -140 -3 -170 -10z m340 -175 c190 -63 336 -201 408 -386 25 -63 32 -98
37 -203 16 -303 -192 -574 -496 -645 -63 -15 -210 -16 -272 -2 -187 42 -353
171 -436 338 -54 109 -70 187 -66 313 5 170 67 308 190 431 80 78 194 142 300
168 86 21 252 14 335 -14z"/>
<path d="M2365 3908 c-44 -24 -45 -30 -45 -300 0 -293 4 -312 63 -323 29 -6
68 11 293 123 281 141 295 151 278 214 -8 31 -25 41 -272 166 -145 72 -271
132 -280 132 -9 0 -26 -6 -37 -12z m325 -308 c0 -3 -47 -29 -105 -58 l-105
-52 0 110 0 110 105 -52 c58 -29 105 -55 105 -58z"/>
<path d="M4171 3189 c-65 -20 -120 -68 -147 -126 -8 -20 -27 -38 -47 -46 -72
-31 -137 -131 -137 -212 0 -47 27 -127 53 -155 29 -34 75 -65 113 -78 17 -5
50 -24 74 -40 91 -67 237 -65 326 3 19 14 49 31 67 37 96 33 167 127 167 223
0 90 -62 190 -137 222 -20 8 -38 26 -47 46 -18 42 -67 90 -114 113 -44 21
-124 27 -171 13z m125 -170 c7 -5 18 -32 24 -60 14 -55 33 -73 93 -83 71 -13
90 -109 27 -141 -16 -8 -38 -15 -49 -15 -12 0 -37 -16 -58 -35 -20 -19 -49
-37 -65 -40 -44 -10 -81 3 -121 40 -21 19 -46 35 -58 35 -40 0 -78 28 -84 64
-10 50 15 82 75 96 52 12 80 41 80 82 0 25 26 62 50 71 20 8 70 0 86 -14z"/>
<path d="M1246 1903 c-165 -50 -275 -193 -282 -365 -7 -173 85 -318 243 -387
48 -20 74 -25 153 -25 80 0 104 4 153 25 160 70 250 213 243 386 -7 151 -86
272 -222 340 -63 31 -84 36 -156 38 -53 2 -101 -2 -132 -12z m176 -154 c57
-13 132 -76 154 -128 20 -48 30 -151 15 -151 -6 0 -93 54 -192 121 -163 108
-179 122 -163 133 48 33 117 42 186 25z m47 -442 c-45 -28 -158 -30 -210 -4
-93 46 -157 164 -135 251 6 23 15 17 192 -101 l186 -125 -33 -21z"/>
</g>
</svg>
